#!OML:ASF I:\Actors\actors\Patient Classification 1\Patient 1\Session 1\Subject1.ASF
:FULLY-SPECIFIED
:DEGREES
462
root -0.537224 17.6822 8.28438 4.715 -1.80485 -7.84462
lowerback 1.77993 2.30669 5.76853
upperback 0.48135 3.17704 0.0540425
thorax -0.191389 1.59261 -3.22486
lowerneck -14.3588 -1.49329 1.21497
upperneck 32.6457 -4.6846 6.25672
head 13.5894 -1.04798 1.53485
rclavicle 1.26228e-014 1.90833e-014
rhumerus -88.53 40.2512 -80.9597
rradius 135
rwrist -40.3018
rhand 74.809 -41.2986
rfingers 7.12502
rthumb 71.2385 -679.984
lclavicle 1.26228e-014 1.90833e-014
lhumerus -99.1823 -49.8531 87.094
lradius 130.775
lwrist 79.7582
lhand 28.8706 -9.26083
lfingers 7.12502
lthumb 52.6887 10.4266
rfemur -1.96184 19.1052 25.7375
rtibia 9.0652
rfoot -14.3395 -20.8199
rtoes -2.48764
lfemur 7.9536 -33.2265 -14.646
ltibia -1.91904
lfoot -15.954 43.9542
ltoes 4.07385
463
root -0.541969 17.6865 8.24728 4.62055 -1.43273 -7.86724
lowerback 2.1928 2.22786 5.87679
upperback 0.940038 3.0858 0.0405377
thorax 0.0479538 1.56391 -3.30453
lowerneck -13.9135 -1.45124 2.08066
upperneck 32.8846 -4.53596 5.29337
head 13.5377 -1.00534 1.03049
rclavicle 7.25564e-015 2.3059e-014
rhumerus -89.2505 38.0428 -81.7848
rradius 134.982
rwrist -39.3577
rhand 73.9369 -37.7086
rfingers 7.12502
rthumb 71.742 -678.521
lclavicle 7.25564e-015 2.3059e-014
lhumerus -100.325 -48.5649 88.2957
lradius 131.264
lwrist 78.8003
lhand 26.2942 -10.1334
lfingers 7.12502
lthumb 50.3466 10.9054
rfemur -2.09525 18.8927 25.78
rtibia 9.29152
rfoot -14.4002 -20.9724
rtoes -2.24002
lfemur 7.40085 -32.5577 -14.1998
ltibia -1.60569
lfoot -15.1004 43.0423
ltoes 2.71542
464
root -0.547591 17.6908 8.20891 4.48398 -1.09625 -7.86852
lowerback 2.72435 2.1605 5.94085
upperback 1.38086 3.01808 0.0110766
thorax 0.203456 1.5446 -3.38176
lowerneck -14.0989 -1.40831 2.19445
upperneck 33.9314 -4.53313 5.13973
head 14.036 -0.973572 0.966637
rclavicle 3.926e-014 2.38542e-015
rhumerus -89.2129 35.8186 -81.7044
rradius 134.811
rwrist -40.6059
rhand 73.7869 -37.4301
rfingers 7.12502
rthumb 71.8259 -678.621
lclavicle 3.926e-014 2.38542e-015
lhumerus -101.263 -47.3129 89.3002
lradius 131.841
lwrist 78.1319
lhand 22.8711 -11.1833
lfingers 7.12502
lthumb 47.1998 11.3944
rfemur -2.19001 18.6929 25.8113
rtibia 9.52328
rfoot -14.4461 -21.1197
rtoes -1.87624
lfemur 6.98794 -32.0753 -13.895
ltibia -1.32453
lfoot -14.4509 42.2993
ltoes 1.66971
465
root -0.55245 17.6952 8.17007 4.37371 -0.784327 -7.8646
lowerback 3.25653 2.09912 5.97101
upperback 1.83373 2.9575 -0.00169049
thorax 0.369471 1.52948 -3.42217
lowerneck -14.3549 -1.4244 2.07622
upperneck 34.759 -4.56321 5.0667
head 14.472 -0.98108 0.966247
rclavicle 2.24627e-014 -2.46493e-014
rhumerus -89.4109 33.6615 -81.9842
rradius 134.636
rwrist -40.5057
rhand 74.1091 -35.8346
rfingers 7.12502
rthumb 71.6447 -676.218
lclavicle 2.24627e-014 -2.46493e-014
lhumerus -101.674 -46.1142 89.7997
lradius 132.285
lwrist 77.9769
lhand 21.4372 -11.907
lfingers 7.12502
lthumb 45.8715 11.2409
rfemur -2.33548 18.4812 25.8087
rtibia 9.76439
rfoot -14.48 -21.2287
rtoes -1.37048
lfemur 6.57853 -31.7679 -13.6366
ltibia -1.04767
lfoot -13.9503 41.7393
ltoes 0.950677
466
root -0.556906 17.6997 8.13053 4.33225 -0.50775 -7.8935
lowerback 3.76601 2.05564 6.0163
upperback 2.28325 2.91996 0.00854813
thorax 0.547352 1.52633 -3.44639
lowerneck -14.5188 -1.43779 2.22447
upperneck 35.2707 -4.58582 4.83872
head 14.7373 -0.982984 0.85068
rclavicle 2.94201e-014 1.98785e-014
rhumerus -89.2909 31.6286 -81.7937
rradius 134.43
rwrist -41.5951
rhand 74.6303 -36.8022
rfingers 7.12502
rthumb 71.3438 -675.914
lclavicle 2.94201e-014 1.98785e-014
lhumerus -101.589 -45.0612 89.7921
lradius 132.523
lwrist 78.1313
lhand 22.4186 -12.0641
lfingers 7.12502
lthumb 46.7811 10.6979
rfemur -2.59822 18.2843 25.806
rtibia 10.0545
rfoot -14.473 -21.3089
rtoes -1.19014
lfemur 6.07346 -31.4057 -13.2703
ltibia -0.792187
lfoot -13.5536 41.1724
ltoes 0.411756
467
root -0.562072 17.7036 8.08998 4.32716 -0.28414 -7.96722
lowerback 4.31356 2.01113 6.0866
upperback 2.70294 2.88579 0.042562
thorax 0.674363 1.52299 -3.46229
lowerneck -14.6362 -1.4184 2.36914
upperneck 35.5739 -4.56926 4.68667
head 14.8988 -0.96541 0.769318
rclavicle -4.4329e-014 2.54444e-014
rhumerus -89.4187 29.8767 -82.0157
rradius 134.271
rwrist -41.3853
rhand 74.5191 -37.9026
rfingers 7.12502
rthumb 71.4088 -677.282
lclavicle -4.4329e-014 2.54444e-014
lhumerus -101.57 -44.0757 89.8062
lradius 132.698
lwrist 77.8562
lhand 22.8737 -12.189
lfingers 7.12502
lthumb 47.2021 10.3876
rfemur -2.90993 18.1468 25.8509
rtibia 10.3585
rfoot -14.4464 -21.3946
rtoes -1.46363
lfemur 5.59109 -30.99 -12.8314
ltibia -0.638625
lfoot -13.1966 40.5976
ltoes 0.0726463
468
root -0.567596 17.7059 8.04912 4.36603 -0.084509 -8.0805
lowerback 4.86058 1.92782 6.14322
upperback 3.07142 2.80171 0.131747
thorax 0.74057 1.49112 -3.4131
lowerneck -14.8574 -1.3501 2.29622
upperneck 35.9697 -4.48454 4.69578
head 15.1404 -0.922023 0.805708
rclavicle -2.32578e-014 -3.97569e-015
rhumerus -89.5457 28.5191 -82.2986
rradius 134.072
rwrist -41.1633
rhand 74.4929 -40.3903
rfingers 7.12502
rthumb 71.424 -679.833
lclavicle -2.32578e-014 -3.97569e-015
lhumerus -101.898 -42.9937 90.175
lradius 132.865
lwrist 77.0721
lhand 22.1142 -12.5471
lfingers 7.12502
lthumb 46.4993 10.3366
rfemur -3.23981 18.0568 25.937
rtibia 10.6111
rfoot -14.4353 -21.4888
rtoes -1.51257
lfemur 5.12337 -30.6383 -12.3567
ltibia -0.552217
lfoot -12.7245 40.1241
ltoes -0.393661
469
root -0.57296 17.7084 8.00952 4.47967 0.05284 -8.23436
lowerback 5.37056 1.8457 6.19359
upperback 3.38714 2.71869 0.239857
thorax 0.772429 1.45722 -3.33983
lowerneck -14.8493 -1.2587 2.56107
upperneck 35.9112 -4.26996 4.28223
head 15.0833 -0.854489 0.620642
rclavicle -3.95581e-014 -8.74653e-015
rhumerus -89.5532 27.483 -82.6486
rradius 133.796
rwrist -41.2507
rhand 75.0358 -40.0533
rfingers 7.12502
rthumb 71.1034 -678.204
lclavicle -3.95581e-014 -8.74653e-015
lhumerus -102.381 -41.8465 90.8448
lradius 132.914
lwrist 76.053
lhand 21.3299 -12.9617
lfingers 7.12502
lthumb 45.7719 10.2272
rfemur -3.62437 18.0557 26.0556
rtibia 10.8151
rfoot -14.3858 -21.5916
rtoes -1.25218
lfemur 4.64639 -30.4457 -11.8567
ltibia -0.494626
lfoot -12.2782 39.8659
ltoes -0.944552
470
root -0.575723 17.7125 7.97289 4.68918 0.12894 -8.36119
lowerback 5.82427 1.77206 6.20798
upperback 3.63751 2.64408 0.299204
thorax 0.770036 1.42492 -3.29576
lowerneck -15.2694 -1.21372 2.5344
upperneck 36.3179 -4.25015 4.29456
head 15.3811 -0.829534 0.637397
rclavicle -6.36111e-015 5.56597e-015
rhumerus -89.3801 26.6735 -83.094
rradius 133.311
rwrist -41.7709
rhand 76.4557 -37.081
rfingers 7.12502
rthumb 70.2204 -672.062
lclavicle -6.36111e-015 5.56597e-015
lhumerus -102.917 -40.7054 91.7299
lradius 132.783
lwrist 74.9863
lhand 20.4161 -13.4523
lfingers 7.12502
lthumb 44.9225 10.0777
rfemur -4.07368 18.075 26.0985
rtibia 10.9417
rfoot -14.3017 -21.6394
rtoes -0.967038
lfemur 4.18701 -30.5969 -11.466
ltibia -0.460156
lfoot -12.134 39.9513
ltoes -1.02138
471
root -0.576573 17.7184 7.93775 5.03914 0.220715 -8.41874
lowerback 6.18228 1.68479 6.12771
upperback 3.78115 2.54405 0.334411
thorax 0.704203 1.37421 -3.2209
lowerneck -15.6388 -1.17859 2.54248
upperneck 36.5981 -4.21937 4.23733
head 15.6047 -0.810009 0.618935
rclavicle 5.14852e-014 2.70347e-014
rhumerus -89.1824 26.0335 -83.6645
rradius 132.539
rwrist -42.4411
rhand 77.2288 -35.2638
rfingers 7.12502
rthumb 69.715 -668.64
lclavicle 5.14852e-014 2.70347e-014
lhumerus -103.421 -39.614 92.6495
lradius 132.475
lwrist 74.3538
lhand 19.7768 -13.884
lfingers 7.12502
lthumb 44.3271 9.87579
rfemur -4.62975 18.0607 25.994
rtibia 10.9587
rfoot -14.1746 -21.6639
rtoes -0.854636
lfemur 3.63909 -31.0457 -11.1413
ltibia -0.480148
lfoot -12.2513 40.279
ltoes -0.496424
472
root -0.577029 17.7256 7.90472 5.47849 0.282741 -8.41935
lowerback 6.51075 1.66127 6.0483
upperback 3.81546 2.53011 0.31261
thorax 0.553163 1.36226 -3.21033
lowerneck -15.9039 -1.14796 2.74137
upperneck 36.7644 -4.1866 4.03169
head 15.7391 -0.788294 0.502362
rclavicle 1.49089e-014 -5.56597e-015
rhumerus -88.8881 25.3116 -83.9302
rradius 131.88
rwrist -43.4948
rhand 75.7887 -38.8594
rfingers 7.12502
rthumb 70.6428 -675.293
lclavicle 1.49089e-014 -5.56597e-015
lhumerus -103.835 -38.8154 93.5357
lradius 131.965
lwrist 74.0196
lhand 19.6818 -14.4345
lfingers 7.12502
lthumb 44.2386 9.35882
rfemur -5.23186 18.1162 25.7947
rtibia 10.8843
rfoot -14.0002 -21.7277
rtoes -0.861534
lfemur 3.07559 -31.6095 -10.8599
ltibia -0.618072
lfoot -12.3103 40.7659
ltoes -0.0248667
473
root -0.575655 17.7322 7.87581 5.89236 0.245198 -8.36693
lowerback 6.8683 1.71737 6.02223
upperback 3.82563 2.62663 0.208203
thorax 0.379138 1.40612 -3.32256
lowerneck -16.1412 -1.13722 2.95577
upperneck 36.8294 -4.22774 3.94899
head 15.8231 -0.780696 0.421153
rclavicle -5.96354e-016 4.69132e-014
rhumerus -89.1964 24.468 -85.2385
rradius 130.571
rwrist -40.8259
rhand 75.4613 -31.6565
rfingers 7.12502
rthumb 70.8453 -668.826
lclavicle -5.96354e-016 4.69132e-014
lhumerus -104.01 -38.2779 94.2768
lradius 131.269
lwrist 73.1224
lhand 19.4452 -15.2366
lfingers 7.12502
lthumb 44.0179 8.63956
rfemur -5.73976 18.2361 25.5436
rtibia 10.7164
rfoot -13.7837 -21.7563
rtoes -0.833274
lfemur 2.60419 -32.1364 -10.7064
ltibia -0.758348
lfoot -12.2759 41.3252
ltoes 0.113032
474
root -0.573428 17.7365 7.84848 6.25453 0.142555 -8.33579
lowerback 7.23215 1.75407 5.97191
upperback 3.87261 2.6946 0.157065
thorax 0.233451 1.43627 -3.3648
lowerneck -16.3665 -1.09319 3.08621
upperneck 36.7654 -4.19124 3.88714
head 15.8404 -0.754148 0.375625
rclavicle 1.2921e-014 -3.65764e-014
rhumerus -88.9283 23.754 -85.6599
rradius 129.772
rwrist -39.3917
rhand 75.3847 -31.5431
rfingers 7.12502
rthumb 70.8922 -668.888
lclavicle 1.2921e-014 -3.65764e-014
lhumerus -103.671 -37.5093 94.541
lradius 130.526
lwrist 71.6649
lhand 18.8806 -16.0413
lfingers 7.12502
lthumb 43.4909 8.02882
rfemur -6.1262 18.4195 25.3352
rtibia 10.4459
rfoot -13.5527 -21.7684
rtoes -0.654265
lfemur 2.1586 -32.4053 -10.518
ltibia -0.858596
lfoot -12.1797 41.7154
ltoes 0.165306
475
root -0.569966 17.7375 7.82091 6.61122 0.0133501 -8.33656
lowerback 7.59518 1.74425 5.89499
upperback 3.95529 2.69767 0.176835
thorax 0.11391 1.43431 -3.31439
lowerneck -16.6567 -0.971391 3.2265
upperneck 36.6369 -4.02518 3.77709
head 15.8375 -0.680746 0.329595
rclavicle 2.54444e-014 1.35174e-014
rhumerus -88.1934 23.2584 -85.5617
rradius 128.973
rwrist -37.9869
rhand 76.2997 -31.7703
rfingers 7.12502
rthumb 70.3203 -667.085
lclavicle 2.54444e-014 1.35174e-014
lhumerus -102.695 -36.4134 94.2074
lradius 129.712
lwrist 70.6311
lhand 18.0917 -16.8165
lfingers 7.12502
lthumb 42.7534 7.51597
rfemur -6.46019 18.6729 25.1625
rtibia 10.1056
rfoot -13.348 -21.8079
rtoes -0.362093
lfemur 1.73135 -32.5162 -10.2645
ltibia -1.01661
lfoot -12.0002 42.0073
ltoes 0.268061
